<svg width="35" height="35" viewBox="0 0 35 35" fill="none" xmlns="http://www.w3.org/2000/svg">
<path d="M29.629 6.06019C27.3982 5.03661 25.006 4.28249 22.5049 3.85057C22.4593 3.84223 22.4138 3.86306 22.3903 3.90473C22.0827 4.45192 21.7419 5.16577 21.5033 5.72685C18.8131 5.32411 16.1367 5.32411 13.5017 5.72685C13.263 5.1533 12.9099 4.45192 12.6008 3.90473C12.5774 3.86445 12.5319 3.84362 12.4863 3.85057C9.98654 4.28111 7.59436 5.03523 5.3622 6.06019C5.34287 6.06852 5.32631 6.08242 5.31532 6.10047C0.777863 12.8793 -0.465136 19.4916 0.144638 26.0218C0.147397 26.0538 0.165331 26.0843 0.190164 26.1038C3.18385 28.3022 6.08374 29.6369 8.92978 30.5216C8.97533 30.5355 9.02359 30.5188 9.05258 30.4813C9.72581 29.562 10.3259 28.5926 10.8405 27.5731C10.8709 27.5134 10.8419 27.4426 10.7798 27.419C9.8279 27.0579 8.9215 26.6176 8.04961 26.1177C7.98064 26.0774 7.97512 25.9787 8.03856 25.9315C8.22204 25.794 8.40557 25.651 8.58077 25.5065C8.61246 25.4802 8.65663 25.4746 8.6939 25.4913C14.4219 28.1064 20.6231 28.1064 26.2835 25.4913C26.3207 25.4732 26.3649 25.4788 26.398 25.5052C26.5732 25.6496 26.7567 25.794 26.9416 25.9315C27.005 25.9787 27.0009 26.0774 26.9319 26.1177C26.06 26.6273 25.1536 27.0579 24.2003 27.4176C24.1383 27.4412 24.1107 27.5134 24.141 27.5731C24.6666 28.5911 25.2667 29.5605 25.9276 30.4799C25.9552 30.5188 26.0048 30.5355 26.0504 30.5216C28.9102 29.6369 31.8101 28.3022 34.8038 26.1038C34.83 26.0843 34.8465 26.0551 34.8493 26.0232C35.5791 18.4735 33.627 11.9155 29.6745 6.10185C29.6648 6.08242 29.6483 6.06852 29.629 6.06019ZM11.6959 22.0456C9.97135 22.0456 8.5504 20.4623 8.5504 18.518C8.5504 16.5736 9.9438 14.9904 11.6959 14.9904C13.4617 14.9904 14.8689 16.5875 14.8413 18.518C14.8413 20.4623 13.4479 22.0456 11.6959 22.0456ZM23.3257 22.0456C21.6012 22.0456 20.1803 20.4623 20.1803 18.518C20.1803 16.5736 21.5736 14.9904 23.3257 14.9904C25.0915 14.9904 26.4987 16.5875 26.4711 18.518C26.4711 20.4623 25.0915 22.0456 23.3257 22.0456Z" fill="black"/>
</svg>
