<svg width="40" height="40" viewBox="0 0 40 40" fill="none" xmlns="http://www.w3.org/2000/svg">
<path fill-rule="evenodd" clip-rule="evenodd" d="M28.4188 0.844882C30.3166 -0.104156 32.5138 -0.260456 34.5268 0.410365C36.5399 1.08119 38.2041 2.52418 39.1532 4.4219C39.6231 5.36156 39.9034 6.38457 39.9779 7.43253C40.0525 8.48049 39.9199 9.53287 39.5877 10.5296C39.2555 11.5263 38.7303 12.4478 38.0419 13.2416C37.3536 14.0353 36.5156 14.6857 35.5759 15.1556C34.6362 15.6255 33.6131 15.9058 32.5651 15.9803C31.5171 16.0549 30.4646 15.9223 29.4679 15.5901C28.4711 15.258 27.5495 14.7328 26.7557 14.0445C26.4728 13.7991 26.208 13.5348 25.9632 13.2536L15.8219 18.3239C15.9374 18.865 15.9983 19.4258 15.9983 19.9996C15.9983 20.5733 15.9374 21.1341 15.8219 21.6752L25.963 26.7455C26.8938 25.6764 28.1004 24.8642 29.468 24.4083C30.4649 24.076 31.5174 23.9434 32.5656 24.0178C33.6137 24.0923 34.6369 24.3725 35.5768 24.8424C37.4749 25.7914 38.9183 27.4555 39.5894 29.4687C40.2605 31.4818 40.1043 33.6791 39.1552 35.5771C38.2062 37.4751 36.542 38.9184 34.5287 39.5894C32.5154 40.2604 30.318 40.1043 28.4199 39.1553C26.5218 38.2063 25.0784 36.5422 24.4073 34.529C23.9514 33.1615 23.8773 31.7089 24.1742 30.323L14.0333 25.2528C13.3055 26.0886 12.407 26.7696 11.3899 27.2454C9.75762 28.009 7.91532 28.1991 6.16148 27.785C4.40764 27.3708 2.84501 26.3767 1.72672 24.9637C0.608428 23.5507 0 21.8015 0 19.9996C0 18.1976 0.608428 16.4484 1.72672 15.0354C2.84501 13.6224 4.40764 12.6283 6.16148 12.2141C7.91532 11.8 9.75762 11.9901 11.3899 12.7537C12.407 13.2295 13.3055 13.9106 14.0333 14.7463L24.1741 9.67619C23.8773 8.2905 23.9513 6.83825 24.407 5.47092C25.0778 3.45796 26.5209 1.79392 28.4188 0.844882ZM11.3663 17.839C10.9599 17.206 10.3815 16.6978 9.69497 16.3766C8.87883 15.9948 7.95768 15.8998 7.08076 16.1068C6.20384 16.3139 5.42252 16.811 4.86338 17.5175C4.30423 18.224 4.00002 19.0986 4.00002 19.9996C4.00002 20.9005 4.30423 21.7751 4.86338 22.4816C5.42252 23.1881 6.20384 23.6852 7.08076 23.8923C7.95768 24.0993 8.87883 24.0043 9.69497 23.6225C10.3815 23.3013 10.9599 22.7931 11.3663 22.1602V17.839ZM33.2622 4.20497C32.2556 3.86953 31.1569 3.94769 30.2079 4.42225C29.2589 4.89681 28.5373 5.7289 28.2018 6.73547C27.8664 7.74204 27.9445 8.84064 28.4191 9.78959C28.6541 10.2595 28.9794 10.6784 29.3763 11.0226C29.7732 11.3668 30.2341 11.6294 30.7325 11.7955C31.2309 11.9616 31.7572 12.0279 32.2813 11.9906C32.8053 11.9534 33.3169 11.8132 33.7868 11.5783C34.2567 11.3433 34.6757 11.0181 35.0199 10.6211C35.3641 10.2242 35.6268 9.76343 35.7929 9.26503C35.959 8.76663 36.0253 8.24039 35.988 7.71637C35.9507 7.19234 35.8106 6.68079 35.5756 6.21092C35.101 5.26197 34.2688 4.54041 33.2622 4.20497ZM32.282 28.0075C31.7578 27.9703 31.2315 28.0366 30.7329 28.2028C29.7261 28.5384 28.8938 29.2602 28.4192 30.2094C27.9446 31.1586 27.8665 32.2574 28.2021 33.2642C28.5377 34.271 29.2595 35.1032 30.2088 35.5778C31.158 36.0524 32.2569 36.1305 33.2638 35.7949C34.2706 35.4593 35.1029 34.7375 35.5775 33.7883C36.0521 32.8391 36.1302 31.7403 35.7946 30.7335C35.459 29.7267 34.7372 28.8945 33.7879 28.4199C33.3179 28.1849 32.8062 28.0448 32.282 28.0075Z" fill="black"/>
</svg>
