<?xml version="1.0" standalone="no"?>
<!DOCTYPE svg PUBLIC "-//W3C//DTD SVG 20010904//EN"
 "http://www.w3.org/TR/2001/REC-SVG-20010904/DTD/svg10.dtd">
<svg version="1.0" xmlns="http://www.w3.org/2000/svg"
 width="348.000000pt" height="348.000000pt" viewBox="0 0 348.000000 348.000000"
 preserveAspectRatio="xMidYMid meet">

<g transform="translate(0.000000,348.000000) scale(0.100000,-0.100000)"
fill="#000000" stroke="none">
<path d="M1454 3330 c-163 -23 -369 -89 -504 -163 -405 -219 -672 -570 -778
-1022 -24 -99 -26 -130 -27 -315 0 -221 14 -316 72 -490 116 -347 370 -654
691 -837 186 -106 359 -161 592 -190 115 -14 154 -15 265 -4 119 10 288 40
300 53 3 3 4 62 3 131 l-3 125 -59 -45 c-86 -64 -210 -122 -263 -123 -10 0
-13 61 -13 270 l0 270 170 0 170 0 0 70 0 70 -170 0 -170 0 0 310 0 310 170 0
170 0 0 70 0 70 -170 0 -170 0 0 310 0 310 323 0 324 0 26 -97 c44 -160 77
-355 77 -457 0 -39 6 -46 90 -123 l90 -83 185 0 185 0 0 -42 c0 -24 -9 -93
-21 -155 l-22 -111 54 -50 c30 -28 55 -49 57 -47 8 8 44 152 57 229 57 348 -5
694 -178 998 -152 266 -400 497 -668 622 -220 102 -367 136 -614 141 -99 2
-207 0 -241 -5z m136 -405 l0 -275 -295 0 c-162 0 -295 2 -295 5 0 12 55 114
98 180 117 183 268 306 431 351 25 7 49 13 54 13 4 1 7 -123 7 -274z m201 259
c191 -56 380 -235 498 -471 l31 -63 -295 0 -295 0 0 275 c0 151 1 275 3 275 2
0 28 -7 58 -16z m-707 -136 c-64 -71 -151 -207 -199 -311 l-40 -86 -142 -1
c-89 0 -143 4 -143 10 0 20 237 247 310 297 60 41 244 142 258 143 2 0 -18
-24 -44 -52z m1205 2 c165 -88 341 -231 440 -357 l33 -43 -146 0 -146 0 -51
102 c-60 119 -127 221 -194 296 -26 28 -43 52 -38 52 4 0 50 -23 102 -50z
m-1499 -542 c0 -2 -13 -56 -30 -121 -28 -110 -53 -272 -66 -429 l-6 -68 -205
0 -206 0 7 71 c14 153 64 326 137 472 l39 77 165 0 c91 0 165 -1 165 -2z m800
-308 l0 -310 -381 0 -381 0 7 78 c16 191 45 356 86 480 l21 62 324 0 324 0 0
-310z m1312 213 c25 -54 55 -126 66 -159 26 -75 60 -241 64 -309 l2 -50 -205
-3 -206 -2 -7 102 c-11 159 -57 411 -92 502 -5 14 12 16 163 16 l170 0 45 -97z
m-2208 -730 c17 -193 47 -370 80 -478 9 -27 16 -56 16 -62 0 -10 -40 -13 -166
-13 l-165 0 -44 93 c-73 157 -115 303 -131 460 l-7 67 206 0 205 0 6 -67z
m896 -243 l0 -310 -324 0 -323 0 -21 68 c-46 147 -68 262 -82 422 -5 63 -10
118 -10 123 0 4 171 7 380 7 l380 0 0 -310z m-695 -552 c50 -101 130 -223 193
-292 17 -19 32 -38 32 -41 0 -13 -183 89 -264 146 -86 62 -235 202 -277 261
l-20 28 143 0 144 0 49 -102z m695 -168 c0 -309 10 -285 -100 -247 -172 61
-346 231 -451 439 l-39 78 295 0 295 0 0 -270z"/>
<path d="M2323 1749 c-12 -4 -26 -17 -32 -28 -8 -13 -11 -239 -11 -703 0 -763
-3 -728 67 -728 31 0 46 11 145 111 60 61 111 109 113 107 2 -1 42 -88 90
-193 48 -104 94 -196 103 -202 21 -17 62 -16 98 1 16 8 58 28 94 44 36 16 86
39 112 51 56 25 83 60 73 92 -4 12 -22 54 -40 93 -18 39 -58 125 -88 191 l-55
120 177 5 c130 4 182 9 195 19 19 16 21 69 3 91 -32 41 -979 921 -999 929 -13
5 -33 5 -45 0z m535 -638 l273 -256 -134 -5 c-142 -5 -167 -14 -182 -60 -3
-11 33 -101 90 -227 53 -114 99 -216 102 -225 4 -14 -9 -24 -62 -48 -37 -17
-69 -29 -71 -27 -2 2 -30 61 -63 133 -32 71 -73 161 -91 199 -40 88 -55 105
-94 105 -25 0 -46 -16 -118 -87 l-88 -88 0 499 0 498 83 -78 c45 -42 205 -192
355 -333z"/>
</g>
</svg>
